<svg xmlns="http://www.w3.org/2000/svg" xmlns:xlink="http://www.w3.org/1999/xlink" width="2000" zoomAndPan="magnify" viewBox="0 0 1500 1499.999933" height="2000" preserveAspectRatio="xMidYMid meet" version="1.0"><defs><g/><clipPath id="c3cb9839b4"><rect x="0" width="1205" y="0" height="617"/></clipPath></defs><g transform="matrix(1, 0, 0, 1, 150, 428)"><g clip-path="url(#c3cb9839b4)"><g fill="#ffffff" fill-opacity="1"><g transform="translate(0.00002043, 416.666609)"><g><path d="M 327.46875 -355.84375 C 323.53125 -350.332031 319.492188 -345.703125 315.359375 -341.953125 C 311.222656 -338.210938 306.394531 -336.34375 300.875 -336.34375 C 297.71875 -336.34375 292.195312 -337.226562 284.3125 -339 C 276.4375 -340.769531 270.53125 -341.65625 266.59375 -341.65625 L 224.625 -341.0625 L 213.390625 -346.984375 L 190.34375 -346.984375 L 177.328125 -348.15625 C 175.359375 -348.550781 173.390625 -348.75 171.421875 -348.75 C 169.453125 -348.75 167.484375 -348.75 165.515625 -348.75 C 153.691406 -348.75 146.398438 -346.78125 143.640625 -342.84375 C 140.878906 -338.90625 139.300781 -334.570312 138.90625 -329.84375 L 138.3125 -308.5625 L 131.21875 -293.1875 L 127.671875 -256.546875 C 127.285156 -254.960938 127.09375 -253.285156 127.09375 -251.515625 C 127.09375 -249.742188 127.09375 -248.070312 127.09375 -246.5 C 127.09375 -236.25 128.765625 -229.25 132.109375 -225.5 C 135.460938 -221.757812 139.304688 -219.890625 143.640625 -219.890625 C 144.035156 -219.890625 144.425781 -219.890625 144.8125 -219.890625 C 145.207031 -219.890625 145.601562 -219.890625 146 -219.890625 L 173.78125 -224.03125 L 189.15625 -222.84375 L 208.078125 -230.53125 L 236.4375 -227.578125 C 243.144531 -227.179688 249.054688 -224.421875 254.171875 -219.296875 C 259.296875 -214.171875 261.859375 -208.066406 261.859375 -200.984375 C 261.859375 -195.859375 259.296875 -191.222656 254.171875 -187.078125 C 249.054688 -182.941406 244.921875 -180.875 241.765625 -180.875 C 241.765625 -180.875 241.664062 -180.875 241.46875 -180.875 C 241.269531 -180.875 241.171875 -180.875 241.171875 -180.875 L 212.203125 -184.421875 L 146 -180.875 L 134.1875 -177.921875 L 130.046875 -170.234375 L 117.625 -159.59375 L 113.5 -75.078125 C 113.101562 -71.523438 112.015625 -66.890625 110.234375 -61.171875 C 108.460938 -55.460938 107.578125 -48.863281 107.578125 -41.375 C 107.578125 -32.707031 109.15625 -26.5 112.3125 -22.75 C 115.46875 -19.007812 119.410156 -17.140625 124.140625 -17.140625 C 124.140625 -17.140625 126.40625 -17.4375 130.9375 -18.03125 C 135.46875 -18.625 140.785156 -19.113281 146.890625 -19.5 C 152.992188 -19.894531 158.019531 -20.09375 161.96875 -20.09375 C 175.363281 -20.09375 187.179688 -20.390625 197.421875 -20.984375 C 207.671875 -21.578125 212.796875 -21.875 212.796875 -21.875 L 238.21875 -31.921875 L 251.21875 -30.734375 L 274.28125 -31.921875 C 274.28125 -31.921875 274.375 -31.921875 274.5625 -31.921875 C 274.757812 -31.921875 274.859375 -31.921875 274.859375 -31.921875 C 281.953125 -31.921875 288.648438 -29.359375 294.953125 -24.234375 C 301.265625 -19.109375 304.421875 -14.972656 304.421875 -11.828125 C 304.421875 -9.066406 302.941406 -6.207031 299.984375 -3.25 C 297.023438 -0.289062 293.96875 2.171875 290.8125 4.140625 C 287.664062 6.109375 285.503906 7.09375 284.328125 7.09375 L 273.6875 5.90625 L 260.09375 13.59375 L 178.515625 16.546875 C 178.515625 16.546875 174.671875 17.429688 166.984375 19.203125 C 159.304688 20.984375 150.046875 23.054688 139.203125 25.421875 C 128.367188 27.785156 118.125 29.851562 108.46875 31.625 C 98.8125 33.394531 92.210938 34.28125 88.671875 34.28125 C 81.578125 34.28125 76.253906 31.71875 72.703125 26.59375 C 69.160156 21.476562 67.390625 15.765625 67.390625 9.453125 C 67.390625 9.054688 67.390625 8.757812 67.390625 8.5625 C 67.390625 8.375 67.390625 8.082031 67.390625 7.6875 L 70.34375 -60.890625 L 77.4375 -79.203125 L 81.578125 -135.953125 L 86.296875 -146.59375 L 88.078125 -200.984375 L 99.890625 -279 L 102.859375 -353.484375 C 103.242188 -362.148438 105.898438 -369.632812 110.828125 -375.9375 C 115.753906 -382.25 121.960938 -385.40625 129.453125 -385.40625 C 129.847656 -385.40625 130.046875 -385.40625 130.046875 -385.40625 C 130.046875 -385.40625 130.242188 -385.40625 130.640625 -385.40625 L 149.546875 -384.21875 L 160.78125 -387.171875 L 185.015625 -382.453125 L 204.53125 -385.40625 L 254.171875 -385.40625 L 287.28125 -381.859375 L 319.203125 -383.03125 C 321.566406 -383.03125 323.832031 -381.0625 326 -377.125 C 328.164062 -373.1875 329.25 -368.851562 329.25 -364.125 C 329.25 -360.96875 328.65625 -358.207031 327.46875 -355.84375 Z M 327.46875 -355.84375 "/></g></g></g><g fill="#ffffff" fill-opacity="1"><g transform="translate(357.618979, 416.666609)"><g><path d="M 264.8125 -218.703125 C 264.8125 -215.953125 263.132812 -211.71875 259.78125 -206 C 256.4375 -200.289062 253.085938 -195.164062 249.734375 -190.625 C 246.390625 -186.09375 244.71875 -183.828125 244.71875 -183.828125 L 237.625 -159.015625 L 211.03125 -113.5 L 205.703125 -96.34375 L 189.75 -67.390625 L 187.375 -50.828125 L 172.015625 -17.734375 L 167.28125 -2.359375 C 164.914062 6.703125 160.875 16.550781 155.15625 27.1875 C 149.445312 37.832031 144.226562 46.796875 139.5 54.078125 C 134.769531 61.367188 132.40625 65.015625 132.40625 65.015625 L 125.90625 91.625 L 110.53125 112.90625 C 105.800781 119.207031 102.054688 126.492188 99.296875 134.765625 C 96.546875 143.046875 93.789062 151.914062 91.03125 161.375 C 90.632812 164.132812 87.875 166.890625 82.75 169.640625 C 77.632812 172.398438 72.316406 173.976562 66.796875 174.375 C 66.398438 174.375 66.101562 174.375 65.90625 174.375 C 65.707031 174.375 65.410156 174.375 65.015625 174.375 C 61.078125 174.375 57.53125 173.289062 54.375 171.125 C 51.226562 168.957031 49.65625 164.921875 49.65625 159.015625 C 49.65625 156.253906 51.921875 149.648438 56.453125 139.203125 C 60.984375 128.765625 65.21875 118.816406 69.15625 109.359375 L 78.625 87.484375 L 88.078125 73.296875 L 108.171875 28.96875 L 120.59375 15.375 L 131.8125 -10.640625 C 139.695312 -27.585938 143.640625 -42.757812 143.640625 -56.15625 C 143.640625 -67.582031 138.515625 -80.878906 128.265625 -96.046875 C 118.023438 -111.222656 105.019531 -124.523438 89.25 -135.953125 C 85.3125 -139.109375 81.664062 -142.0625 78.3125 -144.8125 C 74.96875 -147.570312 73.296875 -148.953125 73.296875 -148.953125 L 60.890625 -154.875 L 52.015625 -169.0625 C 52.015625 -169.0625 50.832031 -171.226562 48.46875 -175.5625 C 46.101562 -179.894531 44.921875 -183.832031 44.921875 -187.375 C 44.921875 -198.8125 46.59375 -205.90625 49.9375 -208.65625 C 53.289062 -211.414062 56.742188 -212.796875 60.296875 -212.796875 C 61.472656 -212.796875 62.648438 -212.796875 63.828125 -212.796875 C 65.015625 -212.796875 66.003906 -212.796875 66.796875 -212.796875 C 68.765625 -212.796875 72.3125 -210.132812 77.4375 -204.8125 C 82.5625 -199.5 88.375 -193.195312 94.875 -185.90625 C 101.375 -178.613281 107.582031 -172.015625 113.5 -166.109375 C 120.195312 -160.191406 125.8125 -153.6875 130.34375 -146.59375 C 134.875 -139.5 139.695312 -133.390625 144.8125 -128.265625 C 149.9375 -123.148438 156.640625 -120.59375 164.921875 -120.59375 C 167.285156 -120.59375 169.75 -121.082031 172.3125 -122.0625 C 174.875 -123.050781 176.15625 -123.546875 176.15625 -123.546875 L 187.375 -135.359375 L 198.015625 -146.59375 L 199.203125 -155.46875 L 226.984375 -219.890625 C 230.140625 -227.378906 233.882812 -232.992188 238.21875 -236.734375 C 242.550781 -240.484375 246.6875 -242.359375 250.625 -242.359375 C 254.570312 -242.359375 257.921875 -240.382812 260.671875 -236.4375 C 263.429688 -232.5 264.8125 -226.585938 264.8125 -218.703125 Z M 264.8125 -218.703125 "/></g></g></g><g fill="#ffffff" fill-opacity="1"><g transform="translate(654.94506, 416.666609)"><g><path d="M 280.78125 -268.359375 C 280.78125 -264.421875 280.484375 -259.003906 279.890625 -252.109375 C 279.296875 -245.210938 278.601562 -238.21875 277.8125 -231.125 C 277.03125 -224.03125 276.34375 -218.019531 275.75 -213.09375 C 275.15625 -208.164062 274.859375 -205.703125 274.859375 -205.703125 C 274.859375 -205.703125 275.253906 -202.253906 276.046875 -195.359375 C 276.835938 -188.460938 277.625 -180.382812 278.40625 -171.125 C 279.195312 -161.863281 279.59375 -153.882812 279.59375 -147.1875 C 279.59375 -127.875 278.410156 -112.40625 276.046875 -100.78125 C 273.679688 -89.15625 272.5 -80.585938 272.5 -75.078125 L 271.3125 -15.953125 L 269.546875 9.453125 L 259.5 20.09375 C 259.5 20.09375 258.707031 21.863281 257.125 25.40625 C 255.550781 28.957031 253.582031 30.734375 251.21875 30.734375 C 248.070312 30.734375 244.523438 29.75 240.578125 27.78125 C 236.640625 25.8125 234.273438 22.859375 233.484375 18.921875 L 228.765625 -9.453125 C 228.765625 -9.453125 228.070312 -10.929688 226.6875 -13.890625 C 225.3125 -16.847656 223.632812 -19.800781 221.65625 -22.75 C 219.6875 -25.707031 217.71875 -27.1875 215.75 -27.1875 C 212.988281 -27.1875 208.0625 -25.90625 200.96875 -23.34375 C 193.882812 -20.78125 185.316406 -18.21875 175.265625 -15.65625 C 165.210938 -13.101562 154.273438 -11.828125 142.453125 -11.828125 C 125.117188 -11.828125 109.648438 -16.160156 96.046875 -24.828125 C 82.453125 -33.492188 71.8125 -44.921875 64.125 -59.109375 C 56.445312 -73.296875 52.609375 -88.46875 52.609375 -104.625 C 52.609375 -108.5625 53 -113.679688 53.78125 -119.984375 C 54.570312 -126.296875 55.457031 -132.109375 56.4375 -137.421875 C 57.425781 -142.742188 57.921875 -145.40625 57.921875 -145.40625 L 70.9375 -175.5625 L 84.53125 -186.796875 C 84.53125 -186.796875 86.300781 -188.664062 89.84375 -192.40625 C 93.394531 -196.144531 97.828125 -200.476562 103.140625 -205.40625 C 108.460938 -210.332031 113.488281 -214.375 118.21875 -217.53125 C 130.039062 -225.019531 140.78125 -230.4375 150.4375 -233.78125 C 160.09375 -237.132812 171.816406 -238.8125 185.609375 -238.8125 L 212.796875 -238.8125 L 234.671875 -230.53125 C 236.242188 -229.738281 237.625 -229.34375 238.8125 -229.34375 C 245.113281 -229.34375 248.265625 -233.878906 248.265625 -242.953125 C 248.265625 -244.523438 248.363281 -245.703125 248.5625 -246.484375 C 248.757812 -247.273438 248.859375 -248.460938 248.859375 -250.046875 C 248.859375 -252.015625 248.660156 -254.472656 248.265625 -257.421875 C 247.867188 -260.378906 246.882812 -265.007812 245.3125 -271.3125 L 241.765625 -292.015625 L 242.359375 -323.34375 C 242.359375 -323.34375 242.359375 -323.535156 242.359375 -323.921875 C 242.359375 -325.898438 242.550781 -331.320312 242.9375 -340.1875 C 243.332031 -349.050781 244.21875 -358.898438 245.59375 -369.734375 C 246.976562 -380.578125 249.34375 -390.035156 252.6875 -398.109375 C 256.039062 -406.191406 260.675781 -410.234375 266.59375 -410.234375 C 271.71875 -410.234375 275.066406 -408.457031 276.640625 -404.90625 C 278.210938 -401.363281 279 -397.425781 279 -393.09375 C 279 -388.363281 278.503906 -383.734375 277.515625 -379.203125 C 276.535156 -374.671875 276.046875 -371.613281 276.046875 -370.03125 C 276.046875 -360.175781 276.832031 -347.367188 278.40625 -331.609375 C 279.988281 -315.847656 280.78125 -294.765625 280.78125 -268.359375 Z M 242.359375 -154.875 C 241.960938 -159.207031 239.5 -163.441406 234.96875 -167.578125 C 230.4375 -171.710938 228.171875 -173.78125 228.171875 -173.78125 L 215.75 -192.703125 C 215.75 -192.703125 213.679688 -193.09375 209.546875 -193.875 C 205.410156 -194.664062 200.679688 -195.359375 195.359375 -195.953125 C 190.035156 -196.546875 185.40625 -196.84375 181.46875 -196.84375 C 165.3125 -196.84375 150.140625 -192.304688 135.953125 -183.234375 C 121.765625 -174.171875 110.238281 -162.84375 101.375 -149.25 C 92.507812 -135.65625 88.078125 -121.566406 88.078125 -106.984375 C 88.078125 -90.046875 93.492188 -76.054688 104.328125 -65.015625 C 115.171875 -53.984375 129.0625 -48.46875 146 -48.46875 C 156.25 -48.46875 166.296875 -49.847656 176.140625 -52.609375 C 185.992188 -55.367188 195.847656 -61.675781 205.703125 -71.53125 C 211.222656 -75.863281 214.570312 -80.394531 215.75 -85.125 C 216.9375 -89.851562 217.53125 -92.21875 217.53125 -92.21875 L 227.578125 -112.3125 L 228.765625 -124.71875 L 238.21875 -138.90625 C 238.21875 -138.90625 238.90625 -140.675781 240.28125 -144.21875 C 241.664062 -147.769531 242.359375 -150.925781 242.359375 -153.6875 C 242.359375 -154.082031 242.359375 -154.28125 242.359375 -154.28125 C 242.359375 -154.28125 242.359375 -154.476562 242.359375 -154.875 Z M 242.359375 -154.875 "/></g></g></g><g fill="#ffffff" fill-opacity="1"><g transform="translate(998.377338, 416.666609)"><g><path d="M 131.21875 -243.53125 L 126.5 -212.796875 L 130.046875 -144.828125 L 127.09375 -131.21875 C 127.09375 -131.21875 126.101562 -127.082031 124.125 -118.8125 C 122.15625 -110.539062 121.171875 -102.859375 121.171875 -95.765625 C 121.171875 -90.640625 121.566406 -85.019531 122.359375 -78.90625 C 123.148438 -72.800781 124.035156 -67.484375 125.015625 -62.953125 C 126.003906 -58.421875 126.5 -56.15625 126.5 -56.15625 L 123.546875 -43.734375 C 121.960938 -37.828125 119.300781 -32.609375 115.5625 -28.078125 C 111.820312 -23.546875 107.585938 -21.28125 102.859375 -21.28125 C 96.941406 -21.28125 93 -23.25 91.03125 -27.1875 C 89.0625 -31.132812 88.078125 -37.046875 88.078125 -44.921875 C 88.078125 -46.890625 88.664062 -50.238281 89.84375 -54.96875 C 91.03125 -59.695312 91.625 -64.226562 91.625 -68.5625 L 89.84375 -106.984375 C 89.84375 -106.984375 89.546875 -110.234375 88.953125 -116.734375 C 88.367188 -123.242188 87.78125 -131.617188 87.1875 -141.859375 C 86.59375 -152.109375 86.296875 -162.550781 86.296875 -173.1875 C 86.296875 -183.039062 86.691406 -192.398438 87.484375 -201.265625 C 88.273438 -210.140625 89.65625 -217.332031 91.625 -222.84375 L 96.9375 -238.8125 L 102.859375 -255.953125 C 104.035156 -259.097656 106.195312 -261.953125 109.34375 -264.515625 C 112.5 -267.078125 115.457031 -268.359375 118.21875 -268.359375 C 122.945312 -268.359375 125.800781 -265.796875 126.78125 -260.671875 C 127.769531 -255.554688 128.265625 -253 128.265625 -253 Z M 126.5 -380.078125 C 126.5 -369.046875 123.835938 -359.785156 118.515625 -352.296875 C 113.191406 -344.804688 107.578125 -340.867188 101.671875 -340.484375 C 101.273438 -340.484375 100.878906 -340.484375 100.484375 -340.484375 C 100.085938 -340.484375 99.5 -340.484375 98.71875 -340.484375 C 94.769531 -340.484375 91.117188 -340.972656 87.765625 -341.953125 C 84.421875 -342.941406 82.160156 -344.617188 80.984375 -346.984375 L 73.890625 -358.796875 L 76.84375 -375.359375 L 91.03125 -389.546875 L 98.71875 -401.359375 L 111.125 -400.1875 C 116.25 -399.394531 120.09375 -397.519531 122.65625 -394.5625 C 125.21875 -391.601562 126.5 -386.773438 126.5 -380.078125 Z M 126.5 -380.078125 "/></g></g></g></g></g></svg>